<svg height="800" viewBox="0 0 800 800" width="800" xmlns="http://www.w3.org/2000/svg"><path d="m573.3 373.3c1.7 12.2-9.8 64.2-14.5 79.6-4.5 14.5-11.3 26.3-21.3 37.8-9.5 11.1-15.9 20.8-26.2 31.2-10.9 10.9-17.9 25.6-19.6 40.9-.7 7.5 1.5 15.6-2.7 21.8-2.4 3.7-4.7 9.2-14.5 9.2-16.7-.1-51.4 3.2-69.8 3-23.8.7-65.9-5.9-77.2-6-8.4-.1-11.3-12.5-13.3-20.8-1.8-8.3-2.5-17-6.3-24.6-3.9-7.7-10.5-13.5-16.6-19.6-30.6-30.2-50.3-70-63.2-111-4.7-14.7-1.5-74 11.9-98 9.7-17.2 20-33.3 32.3-48.9 12.9-16.3 30.8-27.2 49.1-37.2 17.8-9.8 51-17.4 71.3-19.7 35-3.9 66.4-1.1 106.6 28 25.3 18.1 45.9 38 58.2 73.6 7.9 23 13.6 44.2 15.8 60.7z" fill="#ffbe58"/><path d="m562.7 328.6q-2.4-7.8-5.2-16c-12.3-35.6-32.9-55.5-58.2-73.6-40.2-29.1-71.6-31.9-106.6-28-20.3 2.3-53.5 9.9-71.3 19.7-18.3 10-36.2 20.9-49.1 37.2-12.3 15.6-22.6 31.7-32.3 48.9-13.4 24-16.6 83.3-11.9 98 12.9 41 32.6 80.8 63.2 111 6.1 6.1 12.7 11.9 16.6 19.6 3.8 7.6 4.5 16.3 6.3 24.6 2 8.3 4.9 20.7 13.3 20.8 3.5 0 10.1.7 18.1 1.6 1-19.4-.5-44-13.5-58.9-71.5-82.1-86.1-192.6-21.5-245.4 69.2-56.6 177-57 252.1 40.5z" fill="#ffd696"/><g fill="#333"><path d="m529.8 254.4c54.5 54.1 60.3 138.8 33.8 207.5-7.7 20.2-22.2 36.7-36 53-11.1 13.2-23.7 24.6-27.3 42.3-2.2 10.5.6 20.5-4.4 30.3-1.1 2.2-2.3 4-3.7 5.5 8.2 8 9.9 16.3 5.6 22.8 9.5 12.7 5.9 21-4 26.3 5.2 5.7 7.1 13.4.7 20.2-13.2 13.8-44.5 11.3-62.1 12.1-.5 7.7-1.7 17.6-8.5 21.8-6.9 4.2-18.1 4.9-26.1 5-6.8.1-16.2-.5-19.7-7.5-2.3-4.8-3-11.1-3.7-16.8-37.1-.4-74.9-6.6-56.3-33.5-12.4-5.3-17.5-14.2-6.2-28.7-.1-.1-.2-.3-.3-.4-5.4-8.4-2.1-17 4-22.9-3-3.2-5.3-7.6-7.3-14.1-5.2-16.9-7.1-29.8-20-43.8-8.5-9.3-17-18-24.5-28.2-16.3-22.2-28.4-47.3-37.8-73.2-25.3-69.6 11.3-156.3 71.4-196 34.6-23 77.9-34.4 119.4-34 43 .5 82.8 22.4 113 52.3zm-203.7 342.8c-21.6 9.9 29.6 17.8 36.3 18.3 14.1.9 28.2 1.4 42.4 1.8 13 .5 26.1.8 39.1.4 10.6-.3 53.9-3.9 38.4-18.4-4.6 1.4-9.9 1.8-15.6 2.2-20.6 1.2-41.4 2.7-62 2.8-23.3.2-46.8-2.8-69.9-5.5-3.3-.4-6.2-.9-8.7-1.6zm234.2-249.8c-11-42.6-28.6-76.1-64.8-101.9-65.8-47-171.9-32.7-221.8 32.9-23.6 31.1-37.2 61.1-39.6 100.1-2.2 35 10.2 65.3 27.5 95.6s50.2 51.1 58.3 85.5c3 12.7 4.1 20.7 17.3 24.4 6.3 1.7 14.4 1.5 20.8 2.2q4.9.5 9.7 1-2.5-46.1-4.9-92.1c-1.2-22.5-1.3-45.5-6.1-67.6-18.7 3.6-37.4 1.1-49.5-13.8-10.3-12.7-10.9-35.1 6.6-41.4 28.3-10.2 44 18.2 51.3 41.6 9.3-2.4 18.7-6.4 26.8-11.5-8.5-9.2-14.6-20.2-16.5-32.1-2.8-17.3 15.8-49.6 35.7-35.7 27.3 19.1 18.6 48.9-2.3 67.6 5.5 4.4 11.5 8.1 17.9 10.9 2.6 1.2 5.5 2.2 8.5 3 .9-2.6 1.8-5.2 2.8-7.8 6.5-16.3 18.2-34.8 37.2-37.3 9.4-1.2 21.8.8 25.7 10.6 12.2 30.5-27 48-49.8 48.2-2.8 0-5.7-.2-8.5-.6-6.1 22.9-7 48.5-8.4 70.7-2 29.9-1.6 59.8.1 89.7 10.4-.1 20.7-.8 29.5-3.1 24.2-6.4 18.6-30.7 27.8-49.6 8.2-17 23.6-30.4 35.2-45 14.1-17.6 23.2-33.7 28.6-55.7 7.6-30.7 13-57.7 4.9-88.8zm-159 47.9c9.7-8.8 15.5-19.8 13.5-32-2-11.7-9.4-23.8-22-13.6-10.5 8.5-5.9 24.5-.3 33.9 2.4 4.2 5.5 8.1 8.8 11.7zm87.6 227.6c-2.3 1.1-4.9 2-7.9 2.7-29.5 7-62.3 3.6-92.3 2.5-14.4-.6-49.5 2.7-67.9-6.2-11.9 17.7 33.4 16.5 42.8 16.9 13.4.7 26.8.8 40.2 1 15.8.1 31.7.6 47.5 0 6.7-.3 46.4-2 37.6-16.9zm-67.9 52.3c-8.7.6-21.5 1.5-35.3 1.7.4 3.5.9 7.5 2.2 9.9 1.9 3.6 5.4 3.1 9.9 3.1 5.2-.1 12.3-.5 17.2-2.4 4.5-1.7 5.6-7.3 6-12.3zm60.3-28.6c-26.6 6.8-68.7 4.6-77.5 4.5-10.8-.1-49.2 1.7-74.6-4.2q-.3.6-.7 1.3c-13 17.8 46.6 17.3 50.7 17.2 12.4-.2 24.9-.8 37.3-1.5 12.8-.7 25.7-1.3 38.6-2.3 4.9-.4 43.1-5.7 26.2-15zm-102.2-58.4c8.5.7 17 1.1 25.6 1 5.7 0 11.9.2 18.2.3-3-51-5.9-111.6 8.8-162.5-11.7-3.3-23-9.4-32.5-17.5-8.8 6-19.8 11.5-31.3 15.2 5.9 25.9 5.3 53.5 6.7 79.9q2.2 41.8 4.5 83.6zm109.7-188.5c6.7-12.3 0-12.2-12.1-11.5-15.6.9-18.7 4.6-25.6 18.2-1.9 3.7-3.6 7.6-5 11.6 16.6 1.5 34.5-3.3 42.7-18.3zm-137.5 8.9c-3.6-9.5-29.6-44.5-39.7-18.5-4.3 11.3 8.8 21.8 17.8 24.7 6.8 2.3 15.3 2.6 24.4 1.4-.8-2.6-1.6-5.1-2.5-7.6z" fill-rule="evenodd"/><path d="m645.4 243.2c-19 8.6-38.3 16.5-55.3 28.7-5.9 4.2-.2 14 5.7 9.8 17-12.2 36.3-20.2 55.3-28.7 6.6-3 .8-12.8-5.7-9.8z"/><path d="m514.4 197.3c12.8-16.4 22.6-34.4 32.7-52.5 3.6-6.4-6.2-12.1-9.7-5.7-9.7 17.2-18.9 34.6-31 50.2-4.5 5.7 3.5 13.7 8 8z"/><path d="m402.4 162.7q2.1-29.6 1.9-59.2c0-7.3-11.3-7.3-11.3 0q.2 29.6-1.9 59.2c-.5 7.3 10.8 7.3 11.3 0z"/><path d="m284.8 197.7c4 6 13.8.4 9.7-5.7-12-17.9-25.5-35.6-33.1-56-2.6-6.7-13.5-3.8-11 3 8.1 21.4 21.7 39.9 34.4 58.7z"/><path d="m208 270.3c-17.1-12.6-35.5-22.7-55.2-30.6-6.8-2.7-9.7 8.3-3 10.9 18.8 7.6 36.2 17.4 52.5 29.4 5.8 4.3 11.5-5.5 5.7-9.7z"/></g></svg>