<svg version="1.2" xmlns="http://www.w3.org/2000/svg" viewBox="0 0 613 591" width="613" height="591">
	<title>check-svg</title>
	<style>
		.s0 { fill: #ffffff } 
	</style>
	<g id="background">
	</g>
	<g id="objects">
		<g id="&lt;Group&gt;">
		</g>
		<g id="&lt;Group&gt;">
			<path id="&lt;Path&gt;" class="s0" d="m511.5 99.3c-8.2-13.9-26.1-18.4-40-10.2-7.7 4.6-14.9 9.8-21.9 15.3-3.6 2.7-6.8 5.7-10.1 8.6q-4.9 4.4-9.7 9c-6.5 6-12.2 12.6-18.2 19l-8.9 9.7-8.7 9.9c-11.6 13.1-22.8 26.4-34 39.8l-16.5 20.3-16.1 20.5c-21.3 27.5-41.9 55.3-61.7 83.8-10 14.1-19.7 28.5-29.4 42.8q-5.3 8.1-10.6 16.2c-7.6-6.3-14.4-13.3-20.6-21.1-12.5-15.7-22.2-34.9-30.4-55.7l-0.1-0.5c-5.5-13.8-20.8-21.2-35.1-16.7-15 4.8-23.3 20.7-18.5 35.7 3.9 12.5 8.5 25.1 14.3 37.5 5.7 12.4 12.6 24.6 20.8 36.2 8.3 11.6 18 22.4 28.6 32.1 10.6 9.6 22 17.9 33.7 25.1 14.3 8.8 33.2 4.9 42.7-9.1l0.6-0.9c9.4-13.9 19.1-27.7 28.9-41.4 9.8-13.8 19.6-27.5 29.6-41.1 20.1-27.1 40.4-54 61.4-80.2 21.1-26.3 42.5-52.1 64.7-77l8.3-9.4 8.5-9.1c5.7-6.1 11.3-12.3 16.9-18.4 5.5-6.1 10.8-12.6 16-19.1 5.2-6.5 10.2-13.2 14.7-20.5l0.7-1.1c5.3-8.9 5.8-20.4 0.1-30z"/>
		</g>
	</g>
</svg>