<svg height="1122" viewBox="0 0 1122 1122" width="1122" xmlns="http://www.w3.org/2000/svg"><path d="m243.5 561c0-175.4 142.1-317.5 317.5-317.5s317.5 142.1 317.5 317.5-142.1 317.5-317.5 317.5-317.5-142.1-317.5-317.5z" fill="#f6d738"/><path d="m291.5 561c0-148.8 120.7-269.5 269.5-269.5s269.5 120.7 269.5 269.5-120.7 269.5-269.5 269.5-269.5-120.7-269.5-269.5z" fill="#f3cc30"/><path d="m702 331c26.8 41.9 42.4 91.7 42.4 145.2 0 148.8-120.7 269.4-269.5 269.4-51.7 0-100-14.5-141-39.8 47.9 74.8 131.7 124.3 227.1 124.3 148.8 0 269.5-120.6 269.5-269.4 0-97.2-51.4-182.3-128.5-229.7z" fill="#edbd31"/><path d="m338.7 585.7c0-131.4 106.5-237.9 237.9-237.9 76.8 0 145.1 36.4 188.6 92.9-41.1-71.3-118.1-119.4-206.3-119.4-131.4 0-237.9 106.5-237.9 237.9 0 54.6 18.4 104.9 49.4 145-20.2-34.9-31.7-75.4-31.7-118.5z" fill="#f7db5e"/><path d="m583.2 387.1v34.3q20.7 3.3 33.8 13.7 13.2 10.3 25.1 31.7l-34.2 19.1q-15.4-28.1-40.2-28.1-15.5 0-25.6 9.1-10.2 9.2-10.2 22.8 0 12.5 8.3 20.7 8 8 32.5 19.1 21.2 9.6 35.1 18.1 13.8 8.5 20.8 16.4 19.8 21.3 19.8 51.6 0 29.8-17.9 52.6-17.7 22.6-47.3 30.5v36.2h-30.6v-35.2q-34.3-5.6-52.4-23.6-18-18.1-26.6-55.7l38.5-8.1q7.9 26.6 19.3 38 11.9 10.9 31.7 10.9 19.3 0 32.2-12.5 12.8-12.2 12.8-31.7 0-17.3-10.7-27.8-5.4-5.1-16-11.5-10.6-6.4-27.1-13.9-33.9-15.2-44.6-28-17-19.1-17-45.7 0-12.6 4-23.5 4.1-10.9 11.7-19.7 7.6-8.8 18.8-15.3 11.2-6.5 25.4-10.2v-34.3z" fill="#d49a34"/></svg>