<svg version="1.2" xmlns="http://www.w3.org/2000/svg" viewBox="0 0 1200 1200" width="1200" height="1200">
	<title>v1033-b-04-b-ai</title>
	<style>
		.s0 { fill: #b01d10 } 
	</style>
	<g id="_Artboards_">
	</g>
	<g id="Background">
	</g>
	<g id="Graphic Elements">
		<g id="&lt;Group&gt;">
			<path id="&lt;Path&gt;" class="s0" d="m1011.8 450.3h-0.1c0.2-2.8 0.3-5.6 0.3-8.5 0-114.5-96.6-213.8-215.8-213.8-87.1 0-162.1 56.1-196.2 127.5-34.1-71.4-109.1-127.5-196.2-127.5-119.2 0-215.8 99.3-215.8 213.8 0 2.9 0.1 5.7 0.3 8.5h-0.1c0 0-12.1 136.1 139.3 284.6 68.8 69 145.8 134.5 272.5 237.5 126.7-103 203.7-168.5 272.5-237.5 151.4-148.5 139.3-284.6 139.3-284.6z"/>
			<g id="&lt;Group&gt;">
			</g>
		</g>
	</g>
</svg>