<svg version="1.2" xmlns="http://www.w3.org/2000/svg" viewBox="0 0 1000 1000" width="1000" height="1000">
	<title>questionMark-svg</title>
	<style>
		.s0 { fill: #000000 } 
	</style>
	<g id="OBJECT">
		<g id="&lt;Group&gt;">
			<g id="&lt;Group&gt;">
				<g id="&lt;Group&gt;">
					<path id="&lt;Compound Path&gt;" class="s0" d="m613.1 748.6q-0.4-11.8-3.1-22.7c-9.2-38-38.5-67.3-75.9-77-9.4-2.4-19.4-3.6-29.6-3.3-1.7 0.1-3.4 0.1-5.1 0.3-55.5 4.1-98.5 51.1-97 108.3 1.6 57.9 49.7 103.6 107.7 102.1 29.4-0.8 55.5-13.2 74-32.7 18.7-19.4 29.8-46 29-75zm145.9-466c-1-39.9-13.6-75.8-34.7-106.1-16.8-24.5-39.1-45.4-65.1-62.1-46.8-30-105.8-46.3-167.2-44.7-14.6 0.4-28.2 1.6-41 3.5-30.2 4.5-56 12.9-78 23.7-37.7 18.6-64.2 44.2-82.5 69.2-13.8 18.7-17.6 41.2-13 61.8 5 22.5 20.1 42.7 43.3 53.2 32.8 14.8 71.4 4.7 92.9-24.1 12.4-16.8 29.5-31.1 52.3-38.2 8.8-2.7 18.4-4.4 28.9-4.7 41.4-1.1 75.3 29.3 76.5 73.5 1.6 62.4-46 68.9-98.4 101.9q-3.7 2.4-7.4 4.9c-40.7 27.8-41.7 60.9-40.6 101.4l0.6 24.2c1.1 41.3 35 74.1 76.2 74.1q1 0 2 0c30.7-0.9 57.3-19.7 68.4-46.8 2.8-6.6 4.6-13.8 5.3-21.2 1.5-15.3 4.7-30.1 11.2-40.8 4.7-7.9 11.1-13.5 19.7-15.5 39.9-18.3 75.3-40.1 101.7-67 31.4-32 50.2-71.2 48.9-120.2z"/>
				</g>
			</g>
		</g>
	</g>
</svg>